<svg width="113" height="113" viewBox="0 0 113 113" fill="none" xmlns="http://www.w3.org/2000/svg">
<path d="M0 45.2694V70.3805C0 73.8333 2.825 76.6582 6.27778 76.6582H25.1111L45.765 97.3121C49.72 101.267 56.5 98.4421 56.5 92.8549V22.7321C56.5 17.1449 49.72 14.3199 45.765 18.2749L25.1111 38.9916H6.27778C2.825 38.9916 0 41.8166 0 45.2694ZM84.75 57.8249C84.75 46.7132 78.3467 37.171 69.0556 32.5255V83.0616C78.3467 78.4788 84.75 68.9366 84.75 57.8249ZM69.0556 10.4277V11.6833C69.0556 14.0688 70.625 16.1405 72.8222 17.0194C89.0189 23.4855 100.444 39.3682 100.444 57.8249C100.444 76.2816 89.0189 92.1644 72.8222 98.6305C70.5622 99.5094 69.0556 101.581 69.0556 103.967V105.222C69.0556 109.177 73.0106 111.939 76.6517 110.558C97.9333 102.46 113 81.9316 113 57.8249C113 33.7183 97.9333 13.1899 76.6517 5.09158C73.0106 3.64769 69.0556 6.47269 69.0556 10.4277Z" fill="#F66700"/>
</svg>
